<svg width="1440" height="578" viewBox="0 0 1440 578" fill="none" xmlns="http://www.w3.org/2000/svg">
<path d="M1.5 576L0 -8.5H509C466.14 78.7938 425.365 130.305 324.5 226.5C87.1793 432.439 23.6215 504.488 1.5 576Z" fill="#F25050" stroke="#F25050"/>
<path d="M63.5 -8.5C44.7172 19.7718 16.5 22.5 0 60" stroke="#4B4B4B" stroke-opacity="0.42"/>
<path d="M111 -7C82 45.5 33 53.5 0.5 116" stroke="#4B4B4B" stroke-opacity="0.42"/>
<path d="M164 -8C126.5 67.5 47.5 83 0.5 174.5" stroke="#4B4B4B" stroke-opacity="0.42"/>
<path d="M226 -9C165.404 99.1342 60.5 117.5 0.5 243" stroke="#4B4B4B" stroke-opacity="0.42"/>
<path d="M273.5 -8C201.5 120.5 68.5 170.5 1 316" stroke="#4B4B4B" stroke-opacity="0.42"/>
<path d="M319.5 -8C253 108.5 107 196 1.5 366.5" stroke="#4B4B4B" stroke-opacity="0.42"/>
<path d="M385 -8.5C308 139.5 124 226.5 0.5 429.5" stroke="#4B4B4B" stroke-opacity="0.42"/>
<path d="M439.5 -8.5C439.5 78.5 103 314 1.5 489.5" stroke="#4B4B4B" stroke-opacity="0.42"/>
<path d="M1438.5 577L1440 -7.5H931C973.86 79.7938 1014.64 131.305 1115.5 227.5C1352.82 433.439 1416.38 505.488 1438.5 577Z" fill="#F25050" stroke="#F25050"/>
<path d="M1376.5 -7.5C1395.28 20.7718 1423.5 23.5 1440 61" stroke="#4B4B4B" stroke-opacity="0.42"/>
<path d="M1329 -6C1358 46.5 1407 54.5 1439.5 117" stroke="#4B4B4B" stroke-opacity="0.42"/>
<path d="M1276 -7C1313.5 68.5 1392.5 84 1439.5 175.5" stroke="#4B4B4B" stroke-opacity="0.42"/>
<path d="M1214 -8C1274.6 100.134 1379.5 118.5 1439.5 244" stroke="#4B4B4B" stroke-opacity="0.42"/>
<path d="M1166.5 -7C1238.5 121.5 1371.5 171.5 1439 317" stroke="#4B4B4B" stroke-opacity="0.42"/>
<path d="M1120.5 -7C1187 109.5 1333 197 1438.5 367.5" stroke="#4B4B4B" stroke-opacity="0.42"/>
<path d="M1055 -7.5C1132 140.5 1316 227.5 1439.5 430.5" stroke="#4B4B4B" stroke-opacity="0.42"/>
<path d="M1000.5 -7.5C1000.5 79.5 1337 315 1438.5 490.5" stroke="#4B4B4B" stroke-opacity="0.42"/>
</svg>
