<svg width="150" height="50" viewBox="0 0 150 50" fill="none" xmlns="http://www.w3.org/2000/svg">
<rect width="50" height="50" rx="25" fill="#FEE440"/>
<path d="M30.4087 22.2656L37.2163 14.8906C37.3676 14.7269 37.5603 14.6155 37.77 14.5704C37.9797 14.5252 38.1971 14.5484 38.3946 14.6371C38.5921 14.7257 38.761 14.8757 38.8799 15.0682C38.9988 15.2608 39.0623 15.4871 39.0625 15.7187V33.5C39.0623 33.7316 38.9988 33.958 38.8799 34.1505C38.761 34.343 38.5921 34.4931 38.3946 34.5817C38.1971 34.6703 37.9797 34.6935 37.77 34.6484C37.5603 34.6033 37.3676 34.4918 37.2163 34.3281L30.4087 26.9531M14.1827 35.1562H27.1635C28.0241 35.1562 28.8496 34.7859 29.4582 34.1265C30.0668 33.4672 30.4087 32.573 30.4087 31.6406V17.5781C30.4087 16.6457 30.0668 15.7515 29.4582 15.0922C28.8496 14.4329 28.0241 14.0625 27.1635 14.0625H14.1827C13.322 14.0625 12.4966 14.4329 11.888 15.0922C11.2794 15.7515 10.9375 16.6457 10.9375 17.5781V31.6406C10.9375 32.573 11.2794 33.4672 11.888 34.1265C12.4966 34.7859 13.322 35.1562 14.1827 35.1562V35.1562Z" stroke="#282828" stroke-width="3" stroke-linecap="round"/>
<path d="M68.2033 23.95H75.9033V28.4H68.2033V23.95ZM68.6033 34H62.7033V16.5H76.9283V20.95H68.6033V34ZM85.298 34.25C83.6314 34.25 82.173 33.9417 80.923 33.325C79.6897 32.7083 78.7314 31.8667 78.048 30.8C77.3647 29.7167 77.023 28.5 77.023 27.15C77.023 25.7667 77.3564 24.5417 78.023 23.475C78.7064 22.4083 79.6314 21.575 80.798 20.975C81.9814 20.375 83.3064 20.075 84.773 20.075C86.123 20.075 87.3647 20.3417 88.498 20.875C89.648 21.4083 90.5647 22.2 91.248 23.25C91.948 24.3 92.298 25.6 92.298 27.15C92.298 27.35 92.2897 27.575 92.273 27.825C92.2564 28.0583 92.2397 28.275 92.223 28.475H81.698V25.75H89.223L87.098 26.475C87.098 25.9417 86.998 25.4917 86.798 25.125C86.6147 24.7417 86.3564 24.45 86.023 24.25C85.6897 24.0333 85.2897 23.925 84.823 23.925C84.3564 23.925 83.948 24.0333 83.598 24.25C83.2647 24.45 83.0064 24.7417 82.823 25.125C82.6397 25.4917 82.548 25.9417 82.548 26.475V27.325C82.548 27.9083 82.6647 28.4083 82.898 28.825C83.1314 29.2417 83.4647 29.5583 83.898 29.775C84.3314 29.975 84.8564 30.075 85.473 30.075C86.1064 30.075 86.623 29.9917 87.023 29.825C87.4397 29.6583 87.873 29.4083 88.323 29.075L91.273 32.05C90.6064 32.7667 89.7814 33.3167 88.798 33.7C87.8314 34.0667 86.6647 34.25 85.298 34.25ZM93.4561 34V20.325H99.1061V34H93.4561ZM96.2811 19.225C95.2477 19.225 94.4227 18.95 93.8061 18.4C93.1894 17.85 92.8811 17.1667 92.8811 16.35C92.8811 15.5333 93.1894 14.85 93.8061 14.3C94.4227 13.75 95.2477 13.475 96.2811 13.475C97.3144 13.475 98.1394 13.7333 98.7561 14.25C99.3727 14.7667 99.6811 15.4333 99.6811 16.25C99.6811 17.1167 99.3727 17.8333 98.7561 18.4C98.1394 18.95 97.3144 19.225 96.2811 19.225ZM100.985 34V20.325H106.36V24.45L105.485 23.275C105.902 22.2083 106.569 21.4083 107.485 20.875C108.402 20.3417 109.502 20.075 110.785 20.075V25.075C110.535 25.0417 110.31 25.0167 110.11 25C109.927 24.9833 109.735 24.975 109.535 24.975C108.685 24.975 107.985 25.2 107.435 25.65C106.902 26.0833 106.635 26.8417 106.635 27.925V34H100.985ZM119.28 34V31.575L118.88 30.925V26.325C118.88 25.6583 118.672 25.15 118.255 24.8C117.855 24.45 117.197 24.275 116.28 24.275C115.663 24.275 115.038 24.375 114.405 24.575C113.772 24.7583 113.23 25.0167 112.78 25.35L110.98 21.625C111.78 21.125 112.738 20.7417 113.855 20.475C114.972 20.2083 116.063 20.075 117.13 20.075C119.48 20.075 121.297 20.6 122.58 21.65C123.88 22.7 124.53 24.3667 124.53 26.65V34H119.28ZM115.405 34.25C114.288 34.25 113.355 34.0583 112.605 33.675C111.855 33.2917 111.288 32.7833 110.905 32.15C110.522 31.5 110.33 30.7833 110.33 30C110.33 29.1167 110.555 28.3667 111.005 27.75C111.455 27.1333 112.138 26.6667 113.055 26.35C113.988 26.0333 115.163 25.875 116.58 25.875H119.43V28.6H117.48C116.88 28.6 116.438 28.7 116.155 28.9C115.888 29.0833 115.755 29.3667 115.755 29.75C115.755 30.0667 115.872 30.3333 116.105 30.55C116.355 30.75 116.688 30.85 117.105 30.85C117.488 30.85 117.838 30.75 118.155 30.55C118.488 30.3333 118.73 30 118.88 29.55L119.605 31.225C119.388 32.2417 118.93 33 118.23 33.5C117.53 34 116.588 34.25 115.405 34.25Z" fill="#FEE440"/>
</svg>
